<svg width="170" height="44" viewBox="0 0 170 44" fill="none" xmlns="http://www.w3.org/2000/svg">
<path d="M60.15 20.24H65.37C66.53 20.24 67.39 19.97 67.95 19.43C68.53 18.89 68.82 18.14 68.82 17.18C68.82 16.22 68.53 15.46 67.95 14.9C67.37 14.34 66.51 14.06 65.37 14.06H60.15V20.24ZM60.15 23.6V32H56.52V10.7H65.34C67.76 10.7 69.55 11.3 70.71 12.5C71.89 13.68 72.48 15.24 72.48 17.18C72.48 19.1 71.88 20.65 70.68 21.83C69.48 23.01 67.7 23.6 65.34 23.6H60.15Z" fill="black"/>
<path d="M83.719 24.68L79.579 25.31C77.639 25.61 76.669 26.35 76.669 27.53C76.669 28.89 77.589 29.57 79.429 29.57C80.809 29.57 81.869 29.2 82.609 28.46C83.349 27.72 83.719 26.79 83.719 25.67V24.68ZM78.709 32.36C76.869 32.36 75.499 31.93 74.599 31.07C73.699 30.21 73.249 29.07 73.249 27.65C73.249 24.93 75.239 23.29 79.219 22.73L83.719 22.1V21.86C83.719 19.96 82.609 19.01 80.389 19.01C78.449 19.01 77.349 19.78 77.089 21.32H73.609C73.769 19.8 74.399 18.55 75.499 17.57C76.619 16.57 78.279 16.07 80.479 16.07C82.699 16.07 84.369 16.58 85.489 17.6C86.629 18.62 87.199 20.05 87.199 21.89V29.06C87.199 30.32 87.349 31.3 87.649 32H84.259C84.239 32 84.209 31.93 84.169 31.79C84.149 31.63 84.119 31.38 84.079 31.04C84.059 30.7 84.049 30.34 84.049 29.96C82.989 31.56 81.209 32.36 78.709 32.36Z" fill="black"/>
<path d="M95.0034 32H91.4334V9.5H95.0034V32Z" fill="black"/>
<path d="M112.874 23.06V32H109.304V22.67C109.304 20.31 108.324 19.13 106.364 19.13C105.304 19.13 104.454 19.47 103.814 20.15C103.194 20.83 102.884 21.76 102.884 22.94V32H99.3143V16.43H102.614V18.5C102.994 17.8 103.574 17.22 104.354 16.76C105.134 16.3 106.104 16.07 107.264 16.07C109.424 16.07 110.984 16.89 111.944 18.53C113.264 16.89 115.024 16.07 117.224 16.07C119.044 16.07 120.444 16.64 121.424 17.78C122.404 18.9 122.894 20.38 122.894 22.22V32H119.324V22.67C119.324 20.31 118.344 19.13 116.384 19.13C115.304 19.13 114.444 19.48 113.804 20.18C113.184 20.86 112.874 21.82 112.874 23.06Z" fill="black"/>
<path d="M136.658 24.68L132.518 25.31C130.578 25.61 129.608 26.35 129.608 27.53C129.608 28.89 130.528 29.57 132.368 29.57C133.748 29.57 134.808 29.2 135.548 28.46C136.288 27.72 136.658 26.79 136.658 25.67V24.68ZM131.648 32.36C129.808 32.36 128.438 31.93 127.538 31.07C126.638 30.21 126.188 29.07 126.188 27.65C126.188 24.93 128.178 23.29 132.158 22.73L136.658 22.1V21.86C136.658 19.96 135.548 19.01 133.328 19.01C131.388 19.01 130.288 19.78 130.028 21.32H126.548C126.708 19.8 127.338 18.55 128.438 17.57C129.558 16.57 131.218 16.07 133.418 16.07C135.638 16.07 137.308 16.58 138.428 17.6C139.568 18.62 140.138 20.05 140.138 21.89V29.06C140.138 30.32 140.288 31.3 140.588 32H137.198C137.178 32 137.148 31.93 137.108 31.79C137.088 31.63 137.058 31.38 137.018 31.04C136.998 30.7 136.988 30.34 136.988 29.96C135.928 31.56 134.148 32.36 131.648 32.36Z" fill="black"/>
<path d="M152.773 16.31V19.64C152.493 19.6 152.223 19.58 151.963 19.58C149.283 19.58 147.943 21.02 147.943 23.9V32H144.373V16.43H147.673V18.59C148.553 17.05 150.083 16.28 152.263 16.28L152.773 16.31Z" fill="black"/>
<path d="M169.025 25.25H157.175C157.315 26.49 157.765 27.48 158.525 28.22C159.285 28.94 160.285 29.3 161.525 29.3C162.345 29.3 163.085 29.1 163.745 28.7C164.405 28.3 164.875 27.76 165.155 27.08H168.755C168.275 28.66 167.375 29.94 166.055 30.92C164.755 31.88 163.215 32.36 161.435 32.36C159.115 32.36 157.235 31.59 155.795 30.05C154.375 28.51 153.665 26.56 153.665 24.2C153.665 21.9 154.385 19.97 155.825 18.41C157.265 16.85 159.125 16.07 161.405 16.07C163.685 16.07 165.525 16.84 166.925 18.38C168.345 19.9 169.055 21.82 169.055 24.14L169.025 25.25ZM161.405 18.98C160.285 18.98 159.355 19.31 158.615 19.97C157.875 20.63 157.415 21.51 157.235 22.61H165.515C165.355 21.51 164.915 20.63 164.195 19.97C163.475 19.31 162.545 18.98 161.405 18.98Z" fill="black"/>
<circle cx="22" cy="22" r="22" fill="url(#paint0_linear_16_308)"/>
<g clip-path="url(#clip0_16_308)">
<path d="M10.4979 20.2176C9.6082 19.4567 8.96907 18.4423 8.66497 17.3084C8.50115 16.5884 8.51249 15.8394 8.69802 15.1248C8.88356 14.4101 9.23782 13.7511 9.73074 13.2035C10.9555 11.7854 12.5205 10.7056 14.277 10.0665C16.5712 9.14511 19.0148 8.65725 21.4851 8.62747C24.417 8.51157 27.3398 9.02692 30.0576 10.139C31.5696 10.725 32.9377 11.6326 34.0683 12.7997C34.582 13.2906 34.9834 13.8879 35.2447 14.5502C35.5061 15.2125 35.6212 15.924 35.5821 16.6355C35.4578 17.8355 34.9206 18.9542 34.0632 19.7983C33.9396 19.9329 33.8264 20.0778 33.6719 20.2642C33.758 19.6724 33.8095 19.0761 33.8264 18.4783C33.7905 17.7109 33.5994 16.9589 33.2648 16.2683C32.9302 15.5776 32.459 14.9628 31.8802 14.4613C30.2629 12.9865 28.2671 11.9966 26.1189 11.6039C22.531 10.7452 18.7649 11.0477 15.3582 12.4684C13.6945 13.1009 12.259 14.223 11.2393 15.6882C10.8066 16.2993 10.5131 16.9988 10.3796 17.7369C10.2462 18.475 10.276 19.2336 10.467 19.9588C10.4824 20.0157 10.4824 20.0778 10.4979 20.2176Z" fill="white"/>
<path d="M37.7651 17.1169C38.1556 18.7592 37.9588 20.4873 37.209 21.9983C36.1227 24.2708 34.3001 25.7512 32.1016 26.8072C30.1776 27.6936 28.1215 28.255 26.0159 28.4689C23.6231 28.7605 21.2055 28.7831 18.8078 28.5362C15.662 28.21 12.6603 27.4439 10.0551 25.5338C8.08842 24.2048 6.70573 22.1659 6.19363 19.8397C5.97986 18.8737 5.99043 17.8711 6.22452 16.9098C6.22452 16.8529 6.26056 16.7908 6.28116 16.7338C6.30175 16.6769 6.3172 16.7028 6.35839 16.6613C6.50341 18.5281 7.32839 20.2755 8.67528 21.5686C9.78368 22.686 11.0852 23.5912 12.5162 24.2397C15.107 25.4308 17.9068 26.0941 20.754 26.1912C24.1734 26.4199 27.6009 25.8898 30.7938 24.6383C31.9505 24.1756 33.044 23.5668 34.0478 22.8265C35.9476 21.3461 37.3686 19.5809 37.7651 17.1169Z" fill="white"/>
<path d="M6.65701 24.3484C7.34693 25.1352 7.98536 25.9635 8.71647 26.6882C10.6747 28.5211 13.1067 29.7625 15.7341 30.2703C18.9614 30.95 22.2759 31.1073 25.5525 30.7362C27.6605 30.5622 29.7281 30.0556 31.6794 29.235C33.8492 28.308 35.7219 26.796 37.0906 24.8661C37.1511 24.7784 37.222 24.6985 37.3017 24.6279C36.7406 26.2308 35.8652 27.7041 34.7274 28.9607C32.7565 31.0258 30.1835 32.4072 27.3803 32.9051C23.4128 33.7724 19.2957 33.664 15.3788 32.5894C13.4044 32.0845 11.5841 31.0982 10.0791 29.7177C8.57401 28.3372 7.4305 26.6051 6.74969 24.6745C6.71162 24.568 6.68066 24.4591 6.65701 24.3484Z" fill="white"/>
<path d="M29.7229 21.8844C29.9752 19.9173 29.1154 18.6181 27.6943 17.6293C25.9628 16.4944 23.9138 15.9499 21.8506 16.0764C19.9571 16.0501 18.0986 16.5907 16.5115 17.6293C16.0011 17.9371 15.5581 18.3458 15.2094 18.8307C14.8607 19.3157 14.6136 19.8667 14.4829 20.4505C14.4261 20.8986 14.3969 21.3498 14.3954 21.8016C13.5207 21.2317 12.8821 20.3615 12.5985 19.3531C12.494 18.9144 12.4903 18.4576 12.5875 18.0172C12.6847 17.5768 12.8804 17.1645 13.1597 16.8115C13.9579 15.7749 15.0277 14.9826 16.2489 14.5235C18.7028 13.5033 21.3795 13.1464 24.0131 13.4882C25.794 13.6445 27.5186 14.1942 29.0639 15.0981C29.6873 15.4745 30.2556 15.9361 30.7526 16.4698C32.0192 17.8882 31.9832 19.5446 30.7063 20.9682C30.3974 21.2684 30.073 21.5324 29.7229 21.8844Z" fill="white"/>
<path d="M26.1189 23.0854C25.604 21.227 24.2139 20.6679 22.6229 20.4971C21.6017 20.3638 20.5643 20.5442 19.647 21.0148C19.2349 21.1999 18.8731 21.4818 18.5917 21.8367C18.3104 22.1916 18.1179 22.6091 18.0304 23.0543C17.6992 22.8989 17.4021 22.6789 17.1564 22.4069C16.9106 22.135 16.7212 21.8166 16.599 21.4703C16.5329 21.1632 16.5581 20.8433 16.6717 20.5506C16.7852 20.2578 16.982 20.0052 17.2375 19.8242C17.9985 19.1395 18.9347 18.6823 19.9405 18.5042C21.9443 18.0032 24.0597 18.2305 25.9129 19.1461C26.4003 19.4085 26.835 19.7595 27.1949 20.1814C27.4427 20.4358 27.5815 20.7777 27.5815 21.1338C27.5815 21.4899 27.4427 21.8319 27.1949 22.0863C26.8585 22.4428 26.499 22.7765 26.1189 23.0854Z" fill="white"/>
<path d="M13.3297 33.5366C17.5721 36.0265 27.0199 35.9075 31.4374 33.1329C30.9637 34.3442 26.5256 36.6373 23.8432 36.9738C19.8221 37.4811 16.2695 36.4303 13.3297 33.5366Z" fill="white"/>
<path d="M20.2443 23.3235C20.7077 22.5056 23.2511 22.4124 23.8947 23.3235C23.457 24.1569 20.7797 24.2294 20.2443 23.3235Z" fill="white"/>
</g>
<defs>
<linearGradient id="paint0_linear_16_308" x1="11" y1="-6.16" x2="40.48" y2="47.96" gradientUnits="userSpaceOnUse">
<stop stop-color="#5BCDC2"/>
<stop offset="1" stop-color="#A1D947"/>
</linearGradient>
<clipPath id="clip0_16_308">
<rect width="31.9216" height="28.4706" fill="white" transform="translate(6.03918 8.62747)"/>
</clipPath>
</defs>
</svg>
